{
  "accessors": [
    {
      "bufferView": 2,
      "componentType": 5126,
      "count": 26693,
      "max": [
        0.2886490225791931,
        0.30243369936943054,
        0.29480603337287903
      ],
      "min": [
        -0.2957558333873749,
        -0.2953452169895172,
        -0.2901148796081543
      ],
      "type": "VEC3"
    },
    {
      "bufferView": 2,
      "byteOffset": 320316,
      "componentType": 5126,
      "count": 26693,
      "max": [
        0.9999898672103882,
        0.9999462366104126,
        0.9998125433921814
      ],
      "min": [
        -0.9999724626541138,
        -0.9999013543128967,
        -0.9997654557228088
      ],
      "type": "VEC3"
    },
    {
      "bufferView": 1,
      "componentType": 5126,
      "count": 26693,
      "max": [
        0.994045615196228,
        0.9985924363136292
      ],
      "min": [
        0.0014075922081246972,
        0.0014075636863708496
      ],
      "type": "VEC2"
    },
    {
      "bufferView": 1,
      "byteOffset": 213544,
      "componentType": 5126,
      "count": 26693,
      "max": [
        0.994045615196228,
        0.9985924363136292
      ],
      "min": [
        0.0014075922081246972,
        0.0014075636863708496
      ],
      "type": "VEC2"
    },
    {
      "bufferView": 1,
      "byteOffset": 427088,
      "componentType": 5126,
      "count": 26693,
      "max": [
        0.994045615196228,
        0.9985924363136292
      ],
      "min": [
        0.0014075922081246972,
        0.0014075636863708496
      ],
      "type": "VEC2"
    },
    {
      "bufferView": 0,
      "componentType": 5125,
      "count": 135018,
      "type": "SCALAR"
    }
  ],
  "asset": {
    "extras": {
      "author": "morusso (https://sketchfab.com/morusso)",
      "license": "CC-BY-4.0 (http://creativecommons.org/licenses/by/4.0/)",
      "source": "https://sketchfab.com/3d-models/e03011ce8837-shiny-disco-ball-hanging-fro-0-glb-f44e57dcf9034d1ea85980d995c7550b",
      "title": "e03011ce8837_Shiny_disco_ball_hanging_fro_0_glb"
    },
    "generator": "Sketchfab-16.71.0",
    "version": "2.0"
  },
  "bufferViews": [
    {
      "buffer": 0,
      "byteLength": 540072,
      "name": "floatBufferViews",
      "target": 34963
    },
    {
      "buffer": 0,
      "byteLength": 640632,
      "byteOffset": 540072,
      "byteStride": 8,
      "name": "floatBufferViews",
      "target": 34962
    },
    {
      "buffer": 0,
      "byteLength": 640632,
      "byteOffset": 1180704,
      "byteStride": 12,
      "name": "floatBufferViews",
      "target": 34962
    }
  ],
  "buffers": [
    {
      "byteLength": 1821336,
      "uri": "scene.bin"
    }
  ],
  "images": [
    {
      "uri": "textures/material_0_baseColor.jpeg"
    },
    {
      "uri": "textures/material_0_metallicRoughness.png"
    }
  ],
  "materials": [
    {
      "doubleSided": true,
      "name": "material_0",
      "pbrMetallicRoughness": {
        "baseColorTexture": {
          "index": 0
        },
        "metallicRoughnessTexture": {
          "index": 1,
          "texCoord": 1
        }
      }
    }
  ],
  "meshes": [
    {
      "name": "Object_0",
      "primitives": [
        {
          "attributes": {
            "NORMAL": 1,
            "POSITION": 0,
            "TEXCOORD_0": 2,
            "TEXCOORD_1": 3,
            "TEXCOORD_2": 4
          },
          "indices": 5,
          "material": 0,
          "mode": 4
        }
      ]
    }
  ],
  "nodes": [
    {
      "children": [
        1
      ],
      "matrix": [
        1.0,
        0.0,
        0.0,
        0.0,
        0.0,
        2.220446049250313e-16,
        -1.0,
        0.0,
        0.0,
        1.0,
        2.220446049250313e-16,
        0.0,
        0.0,
        0.0,
        0.0,
        1.0
      ],
      "name": "Sketchfab_model"
    },
    {
      "children": [
        2
      ],
      "name": "root"
    },
    {
      "children": [
        3
      ],
      "matrix": [
        1.0,
        0.0,
        0.0,
        0.0,
        0.0,
        2.220446049250313e-16,
        1.0,
        0.0,
        0.0,
        -1.0,
        2.220446049250313e-16,
        0.0,
        0.0,
        0.0,
        0.0,
        1.0
      ],
      "name": "GLTF_SceneRootNode"
    },
    {
      "children": [
        4
      ],
      "name": "world_0"
    },
    {
      "children": [
        5
      ],
      "name": "geometry_0_1"
    },
    {
      "mesh": 0,
      "name": "Object_5"
    }
  ],
  "samplers": [
    {
      "magFilter": 9729,
      "minFilter": 9987,
      "wrapS": 10497,
      "wrapT": 10497
    }
  ],
  "scene": 0,
  "scenes": [
    {
      "name": "Sketchfab_Scene",
      "nodes": [
        0
      ]
    }
  ],
  "textures": [
    {
      "sampler": 0,
      "source": 0
    },
    {
      "sampler": 0,
      "source": 1
    }
  ]
}
